<svg xmlns="http://www.w3.org/2000/svg" width="196.286" height="34.301" viewBox="0 0 196.286 34.301">
  <g id="Group_10167" data-name="Group 10167" transform="translate(-108.175 -243.45)">
    <g id="Group_10161" data-name="Group 10161" transform="translate(151.605 248.725)">
      <path id="Path_10700" data-name="Path 10700" d="M650.587,261.377v28.346H648.6V261.377Z" transform="translate(-522.67 -261.034)" fill="#fff" stroke="#fff" stroke-width="0.5"/>
      <path id="Path_10701" data-name="Path 10701" d="M258.19,287.023v1.991h0a11.431,11.431,0,0,1-11.431-11.431V260.344H248.7v16.27A10.457,10.457,0,0,0,258.19,287.023Z" transform="translate(-246.759 -260.325)" fill="#fff" stroke="#fff" stroke-width="0.5"/>
      <path id="Path_10702" data-name="Path 10702" d="M356.82,350.157v.523q0-.262-.014-.523Z" transform="translate(-322.319 -321.992)" fill="#fff" stroke="#fff" stroke-width="0.5"/>
      <path id="Path_10703" data-name="Path 10703" d="M508.609,341.4a9.422,9.422,0,0,1-8.345-4.737v.266a9.856,9.856,0,0,0,8.864,4.461C508.958,341.4,508.784,341.4,508.609,341.4Z" transform="translate(-420.819 -312.726)" fill="#fff" stroke="#fff" stroke-width="0.5"/>
      <path id="Path_10704" data-name="Path 10704" d="M514.588,277.72c-.509-9.261-12.961-12.424-17.9-5.071V260.283H494.7v19.558l.063-.107a10.3,10.3,0,0,0,1.681,4.8v-.266C501.68,293.457,515.891,288.056,514.588,277.72Zm-7.668,9.091c-12.147,3-14.511-16.323-2.257-16.551C514.166,269.529,515.949,284.912,506.92,286.811Z" transform="translate(-416.999 -260.283)" fill="#fff" stroke="#fff" stroke-width="0.5"/>
      <path id="Path_10708" data-name="Path 10708" d="M313.085,297.455c.458-13.347-18.96-14.6-19.912-1.046-.9,9.965,12.524,14.682,17.941,6.645V307.2H313.1v-9.76Zm-6.253,7.163C295.6,309.83,289.7,292.1,300.884,288.892,310.592,286.082,315.429,300.419,306.832,304.619Z" transform="translate(-278.598 -278.507)" fill="#fff" stroke="#fff" stroke-width="0.5"/>
      <path id="Path_10709" data-name="Path 10709" d="M689.947,297.455c.458-13.347-18.959-14.6-19.912-1.046-.9,9.965,12.524,14.682,17.941,6.645V307.2h1.986v-9.76Zm-6.253,7.163c-11.236,5.211-17.129-12.516-5.948-15.727C687.454,286.082,692.291,300.419,683.694,304.619Z" transform="translate(-537.356 -278.507)" fill="#fff" stroke="#fff" stroke-width="0.5"/>
      <path id="Path_10710" data-name="Path 10710" d="M592.457,286.2v12.09a8.476,8.476,0,0,1-8.476,8.476h-1.23a8.578,8.578,0,0,1-8.578-8.573V286.2h1.986v11.276a7.107,7.107,0,0,0,7.106,7.105,7.027,7.027,0,0,0,7.028-7.028V286.2Z" transform="translate(-471.565 -278.079)" fill="#fff" stroke="#fff" stroke-width="0.5"/>
      <path id="Path_10711" data-name="Path 10711" d="M406.946,294.678v12.09H404.96V295.414a6.466,6.466,0,0,0-12.855-1.38c.014.213.024.426.024.644v12.09h-1.991V295.414a6.763,6.763,0,0,0-6.461-7.028c-3.6,0-6.529,3.182-6.529,7.105v11.276h-1.826V294.775c0-4.732,3.531-8.573,7.885-8.573h1.129a7.721,7.721,0,0,1,6.82,4.374,7.8,7.8,0,0,1,6.873-4.374h1.128C403.463,286.2,406.946,290,406.946,294.678Z" transform="translate(-335.032 -278.079)" fill="#fff" stroke="#fff" stroke-width="0.5"/>
    </g>
    <g id="Group_10165" data-name="Group 10165" transform="translate(108.175 243.45)">
      <g id="Group_10164" data-name="Group 10164" transform="translate(3.508 0)">
        <g id="Group_10162" data-name="Group 10162">
          <path id="Path_10712" data-name="Path 10712" d="M138.429,252.8c0,4.355-6.794,15.9-8.874,19.332a.7.7,0,0,1-1.2,0c-2.1-3.428-8.984-14.979-8.984-19.335a9.531,9.531,0,0,1,19.059,0Z" transform="translate(-119.37 -243.45)" fill="#f7dd0a" fill-rule="evenodd"/>
        </g>
        <g id="Group_10163" data-name="Group 10163" transform="translate(2.664 3.955)">
          <path id="Path_10713" data-name="Path 10713" d="M141.523,261.064l-.013,0a.5.5,0,0,0-.134-.037.007.007,0,0,0,.008.007c-.084.013-.139.084-.212.119a.821.821,0,0,1-.266.023,2.48,2.48,0,0,0-.291.091c-.1.026-.184.075-.28.109-.068.024-.181.024-.223-.048-.012-.021.006-.045,0-.068a.328.328,0,0,0-.042-.12,1.1,1.1,0,0,0-.232-.219,1.99,1.99,0,0,0-.233-.206.815.815,0,0,1-.241-.2c-.052-.075-.093-.158-.151-.228s-.173-.127-.242-.21a1.889,1.889,0,0,1-.106-.22c-.044-.069-.125-.094-.18-.151-.033-.035-.025-.1-.029-.143-.022-.257-.22-.394-.354-.591-.047-.069-.027-.141-.04-.219a.323.323,0,0,0-.14-.2.794.794,0,0,1-.2-.2,2.414,2.414,0,0,1-.155-.309c.085-.062.2-.063.212-.193a.814.814,0,0,0-.088-.349c-.08-.184-.224-.206-.4-.245-.139-.03-.228-.085-.366-.016a.557.557,0,0,1-.351.084,3.054,3.054,0,0,1-.389-.1.641.641,0,0,1-.161-.055.444.444,0,0,0-.149-.07c-.061-.054-.2-.019-.295-.028,0-.008-.014-.053-.015-.061a.021.021,0,0,1-.015,0,.34.34,0,0,0-.016-.079.369.369,0,0,0-.442.13c-.042.082.007.177-.036.255-.061.112-.193.068-.287.037a.288.288,0,0,0-.3-.052.182.182,0,0,1-.086-.026.187.187,0,0,0-.005-.076s-.031-.043-.032-.024v-.034a.261.261,0,0,0-.048-.026.452.452,0,0,0-.042-.021.662.662,0,0,1-.091-.049.618.618,0,0,1-.094-.033.855.855,0,0,0-.1-.029l-.12-.029c-.064-.019-.129-.042-.194-.057a.8.8,0,0,1-.146-.031.275.275,0,0,0-.038-.032.1.1,0,0,1-.033-.1.178.178,0,0,1,.019-.073.1.1,0,0,0,.019-.052c0-.038-.035-.07-.056-.1a.444.444,0,0,1-.049-.11.16.16,0,0,0,.034-.116s0,.007,0,.007c-.007-.021-.007-.02-.027-.033a.2.2,0,0,0-.176-.118c-.026-.025-.01-.017-.052-.021-.03-.027-.039-.024-.081-.036a.111.111,0,0,0-.1-.005.094.094,0,0,0-.088.015.166.166,0,0,1-.189.074.458.458,0,0,0-.065,0,.12.12,0,0,0-.134-.042c-.077-.061-.116.034-.188.045-.1.015-.2-.055-.3-.03a.023.023,0,0,1,0-.02,1.022,1.022,0,0,0-.506.2.683.683,0,0,0-.239.056.029.029,0,0,0-.008-.018.647.647,0,0,0-.118.038.165.165,0,0,0-.129.028.247.247,0,0,1-.087-.009.8.8,0,0,1-.124-.008c.005-.008-.03-.014-.043-.014,0-.033,0-.024-.027-.062l.005.006c.007-.106-.121-.134-.2-.1s-.085.12-.117.178c-.091.162-.242.206-.4.28a.624.624,0,0,0-.363.393,1.061,1.061,0,0,1-.055.248.862.862,0,0,1-.189.224.714.714,0,0,1-.247.159.442.442,0,0,0-.249.158.806.806,0,0,1-.195.2,1.032,1.032,0,0,0-.21.171c-.06.072-.1.161-.152.237s-.123.158-.184.237a.934.934,0,0,0-.247.493c.16.037.056.232.048.338-.006.078.007.155.006.233a.681.681,0,0,1-.044.216,1.807,1.807,0,0,1-.194.411.226.226,0,0,0-.056.2,1.84,1.84,0,0,1,.062.231.777.777,0,0,0,.175.412c.11.125.238.233.339.365a2.468,2.468,0,0,1,.215.446.566.566,0,0,0,.161.2,1.2,1.2,0,0,1,.182.14c.078.086.121.2.207.277a.444.444,0,0,0,.249.126.7.7,0,0,0,.3-.048,1.541,1.541,0,0,1,.323-.067,1.45,1.45,0,0,1,.368.007,2.743,2.743,0,0,0,.314.053,1.032,1.032,0,0,0,.352-.092,2.167,2.167,0,0,1,.323-.053.847.847,0,0,0,.322-.12.2.2,0,0,1,.237.009c.07.063.134.133.2.2a.559.559,0,0,0,.2.165c.118.042.246,0,.365.033a.581.581,0,0,1,.225.148.261.261,0,0,1,.1.229,1.056,1.056,0,0,0-.016.287.77.77,0,0,0-.107.384.8.8,0,0,0,.252.366,3.72,3.72,0,0,1,.531.742,1.412,1.412,0,0,1,.1.2.611.611,0,0,1,.008.225.7.7,0,0,0,.119.328c.134.269-.123.461-.146.72h-.014a2.125,2.125,0,0,0-.143.411,1.024,1.024,0,0,0,.065.661,6.744,6.744,0,0,0,.406.573.782.782,0,0,1,.091.346,1.723,1.723,0,0,0,.073.338c.033.113.023.233.048.348a1,1,0,0,0,.172.328c.077.117.157.232.238.346.047.066.11.119.154.187s.017.141-.008.222a.226.226,0,0,0,.074.2.645.645,0,0,0,.428.267c.243-.008.45-.147.7-.116a.447.447,0,0,0,.325-.072,1.5,1.5,0,0,1,.271-.143,1.792,1.792,0,0,0,.3-.135,1,1,0,0,0,.234-.23c.081-.1.156-.2.237-.3a2.05,2.05,0,0,0,.209-.257.886.886,0,0,0,.052-.334.542.542,0,0,1,.122-.268c.073-.081.191-.088.274-.156a.409.409,0,0,0,.126-.24c.037-.194-.025-.384,0-.577.017-.164.146-.26.264-.36a3.768,3.768,0,0,1,.58-.431.973.973,0,0,0,.433-.339c.117-.217.042-.482.069-.716.013-.114.072-.246-.005-.35-.049-.065-.13-.095-.178-.16-.079-.107-.012-.23-.025-.347-.011-.1-.084-.163-.117-.25-.063-.16.076-.357.164-.481.121-.171.283-.3.414-.466.072-.089.114-.195.182-.287a2.428,2.428,0,0,1,.217-.218,4.365,4.365,0,0,1,.492-.511h-.028c.154-.013.188-.228.226-.343a.59.59,0,0,1,.127-.206.6.6,0,0,0,.129-.305c.042-.218.24-.367.28-.583.024-.128-.031-.345.116-.415C141.59,261.114,141.554,261.1,141.523,261.064Z" transform="translate(-127.872 -256.069)"/>
        </g>
      </g>
      <path id="Path_10714" data-name="Path 10714" d="M134.251,347.044a52.62,52.62,0,0,0-13.036-1.4,52.841,52.841,0,0,0-13.039,1.394c2.3-1.287,7.274-2.18,13.039-2.18S131.949,345.754,134.251,347.044Z" transform="translate(-108.175 -313.08)" fill="#f7dd0a"/>
    </g>
  </g>
</svg>
